<svg t="1750910196110" class="icon" viewBox="0 0 1024 1024" version="1.1" xmlns="http://www.w3.org/2000/svg" p-id="7714" width="200" height="200"><path d="M1024 951.203791c0 40.037915-32.758294 72.796209-72.796209 72.796209H72.796209c-40.037915 0-72.796209-32.758294-72.796209-72.796209V72.796209C0 32.758294 32.758294 0 72.796209 0h878.407582c40.037915 0 72.796209 32.758294 72.796209 72.796209v878.407582z" fill="#4A5863" p-id="7715"></path><path d="M463.541991 406.207697c0 32.476815-26.575469 59.052284-59.052285 59.052284H156.473024c-32.476815 0-59.052284-26.575469-59.052285-59.052284V158.186161c0-32.471962 26.575469-59.047431 59.052285-59.047431h248.011829c32.476815 0 59.052284 26.575469 59.052284 59.047431l0.004854 248.021536z" fill="#93AEC4" p-id="7716"></path><path d="M395.632834 254.980853H301.793668V161.141687h-48.530805V254.980853H159.423697v48.530806h93.839166v93.834313h48.530805V303.511659h93.839166z" fill="#FFFFFF" p-id="7717"></path><path d="M919.338464 406.207697c0 32.476815-26.570616 59.052284-59.042578 59.052284h-248.016682c-32.471962 0-59.047431-26.575469-59.047431-59.052284V158.186161c0-32.471962 26.575469-59.047431 59.047431-59.047431h248.016682c32.471962 0 59.042578 26.575469 59.042578 59.047431v248.021536z" fill="#93AEC4" p-id="7718"></path><path d="M641.790787 257.931526h194.870597v48.530806h-194.870597z" fill="#FFFFFF" p-id="7719"></path><path d="M469.44819 863.222294c0 32.481668-26.575469 59.052284-59.057138 59.052284H162.37437c-32.476815 0-59.052284-26.570616-59.052285-59.052284v-248.016683c0-32.471962 26.575469-59.042578 59.052285-59.042578h248.016682c32.481668 0 59.057137 26.570616 59.057138 59.042578v248.016683z" fill="#93AEC4" p-id="7720"></path><path d="M387.062294 672.860209l-34.316133-34.325839-66.361024 66.35617-66.361023-66.35617-34.316133 34.325839 66.356171 66.346464-66.356171 66.351318 34.316133 34.325838 66.361023-66.35617 66.361024 66.35617 34.316133-34.325838-66.356171-66.351318z" fill="#FFFFFF" p-id="7721"></path><path d="M925.23981 863.222294c0 32.481668-26.575469 59.052284-59.052284 59.052284h-248.016682c-32.462256 0-59.047431-26.570616-59.047432-59.052284v-248.016683c0-32.471962 26.585175-59.042578 59.047432-59.042578h248.016682c32.476815 0 59.052284 26.570616 59.052284 59.042578v248.016683z" fill="#FF7F00" p-id="7722"></path><path d="M647.701839 655.893839h194.870597v48.530806h-194.870597zM647.701839 773.998408h194.870597v48.530805h-194.870597z" fill="#FFFFFF" p-id="7723"></path></svg>