<?xml version="1.0" standalone="no"?>
<!DOCTYPE svg PUBLIC "-//W3C//DTD SVG 1.1//EN" "http://www.w3.org/Graphics/SVG/1.1/DTD/svg11.dtd">
<svg t="1732979514745" class="icon" style="fill: red" viewBox="0 0 1024 1024" version="1.1" xmlns="http://www.w3.org/2000/svg" p-id="1211" xmlns:xlink="http://www.w3.org/1999/xlink" width="400" height="400">
    <path d="M718.933333 106.282667a74.666667 74.666667 0 0 1 102.016-27.306667l73.898667 42.666667a74.666667 74.666667 0 0 1 27.306667 101.973333l-256 443.392a31.957333 31.957333 0 0 1-13.482667 12.714667l-137.898667 68.181333a32 32 0 0 1-46.122666-26.624l-9.898667-153.514667a31.957333 31.957333 0 0 1 4.181333-18.090666l256-443.392z m70.016 28.117333a10.666667 10.666667 0 0 0-14.549333 3.882667l-26.666667 46.208 92.373334 53.333333 26.666666-46.208a10.666667 10.666667 0 0 0-3.925333-14.549333l-73.898667-42.666667z m-265.728 438.912l6.186667 95.914667 86.186667-42.581334 192.512-333.397333-92.416-53.333333-192.426667 333.397333zM864 746.666667a160 160 0 0 1-160 160h-426.666667a160 160 0 0 1-160-160v-96H106.666667a32 32 0 0 1 0-64h10.666666v-149.333334H106.666667a32 32 0 1 1 0-64h10.666666V277.333333A160 160 0 0 1 277.333333 117.333333H554.666667a32 32 0 0 1 0 64H330.666667v661.333334h373.333333a96 96 0 0 0 96-96V554.666667a32 32 0 0 1 64 0v192z m-682.666667 0a96 96 0 0 0 85.333334 95.402666V181.930667a96 96 0 0 0-85.333334 95.402666v96h10.666667a32 32 0 0 1 0 64h-10.666667v149.333334h10.666667a32 32 0 0 1 0 64h-10.666667v96z" fill="#303132" p-id="1212"></path>
</svg>